<mxfile host="app.diagrams.net" modified="2023-04-23T18:00:15.668Z" agent="Mozilla/5.0 (X11; Linux x86_64) AppleWebKit/537.36 (KHTML, like Gecko) Chrome/112.0.0.0 Safari/537.36" etag="vl2ztu_YVS9Adyqkst56" version="21.1.8" type="google">
  <diagram id="Q5rmSxId8F9hAHlEPcBz" name="Page-1">
    <mxGraphModel grid="1" page="1" gridSize="10" guides="1" tooltips="1" connect="1" arrows="1" fold="1" pageScale="1" pageWidth="827" pageHeight="1169" math="0" shadow="0">
      <root>
        <mxCell id="0" />
        <mxCell id="1" parent="0" />
        <mxCell id="Ji2YyT9t74MeuZ0UEmZ--15" value="&lt;font style=&quot;font-size: 19px;&quot;&gt;AppGateway&lt;br&gt;&lt;br&gt;&lt;br&gt;&lt;br&gt;&lt;/font&gt;&lt;br&gt;&lt;br&gt;&lt;br&gt;&lt;br&gt;&lt;br&gt;&lt;br&gt;&lt;br&gt;&lt;br&gt;&lt;br&gt;&lt;br&gt;&lt;br&gt;&lt;br&gt;&lt;br&gt;&lt;br&gt;&lt;br&gt;&lt;br&gt;&lt;br&gt;&lt;br&gt;&lt;br&gt;&lt;br&gt;&lt;br&gt;&lt;br&gt;&lt;br&gt;&lt;br&gt;" style="rounded=1;whiteSpace=wrap;html=1;shadow=0;fontSize=7;fillColor=#f5f5f5;strokeColor=#666666;arcSize=2;fontColor=#333333;" vertex="1" parent="1">
          <mxGeometry x="120" y="160" width="440" height="320" as="geometry" />
        </mxCell>
        <mxCell id="MSE-PEUDxWuA4eRkOTG2-1" value="Cache Services" style="rounded=1;whiteSpace=wrap;html=1;fontSize=14;fillColor=#E6DAB8;strokeColor=#666666;" vertex="1" parent="1">
          <mxGeometry x="350" y="310" width="127" height="40" as="geometry" />
        </mxCell>
        <mxCell id="Ji2YyT9t74MeuZ0UEmZ--80" value="&lt;font style=&quot;font-size: 22px;&quot;&gt;Application&lt;/font&gt;" style="rounded=1;whiteSpace=wrap;html=1;shadow=0;strokeColor=#666666;fontSize=7;fillColor=#dae8fc;arcSize=4;" vertex="1" parent="1">
          <mxGeometry x="120" y="600" width="440" height="200" as="geometry" />
        </mxCell>
        <mxCell id="GzdK0nWGL-ioOvC9NuG4-10" value="AppGateway" style="rounded=1;whiteSpace=wrap;html=1;fillColor=#F5F5F5;strokeColor=#666666;" vertex="1" parent="1">
          <mxGeometry x="120" y="770" width="440" height="30" as="geometry" />
        </mxCell>
        <mxCell id="Ji2YyT9t74MeuZ0UEmZ--28" value="Health" style="rounded=1;whiteSpace=wrap;html=1;fontSize=14;fillColor=#E6DAB8;strokeColor=#666666;" vertex="1" parent="1">
          <mxGeometry x="138" y="310" width="193" height="40" as="geometry" />
        </mxCell>
        <mxCell id="Ji2YyT9t74MeuZ0UEmZ--29" value="Configuration Manager" style="rounded=1;whiteSpace=wrap;html=1;fontSize=14;fillColor=#E6DAB8;strokeColor=#666666;glass=0;" vertex="1" parent="1">
          <mxGeometry x="138" y="220" width="193" height="40" as="geometry" />
        </mxCell>
        <mxCell id="Ji2YyT9t74MeuZ0UEmZ--30" value="Certificate Management" style="rounded=1;whiteSpace=wrap;html=1;fontSize=14;fillColor=#f8cecc;strokeColor=#666666;" vertex="1" parent="1">
          <mxGeometry x="350" y="350" width="193" height="40" as="geometry" />
        </mxCell>
        <mxCell id="Ji2YyT9t74MeuZ0UEmZ--47" value="Service Registry" style="rounded=1;whiteSpace=wrap;html=1;fontSize=14;fillColor=#E6DAB8;strokeColor=#666666;" vertex="1" parent="1">
          <mxGeometry x="138" y="270" width="193" height="40" as="geometry" />
        </mxCell>
        <mxCell id="Ji2YyT9t74MeuZ0UEmZ--48" value="Security" style="rounded=1;whiteSpace=wrap;html=1;fontSize=14;fillColor=#f8cecc;strokeColor=#666666;" vertex="1" parent="1">
          <mxGeometry x="138" y="350" width="191.72" height="40" as="geometry" />
        </mxCell>
        <mxCell id="Ji2YyT9t74MeuZ0UEmZ--50" value="" style="endArrow=classic;html=1;rounded=1;comic=0;fontSize=7;exitX=0.5;exitY=1;exitDx=0;exitDy=0;entryX=1;entryY=0.75;entryDx=0;entryDy=0;strokeColor=#009900;dashed=1;strokeWidth=2;exitPerimeter=0;" edge="1" parent="1" source="MSE-PEUDxWuA4eRkOTG2-12" target="GzdK0nWGL-ioOvC9NuG4-2">
          <mxGeometry width="50" height="50" relative="1" as="geometry">
            <mxPoint x="680" y="360" as="sourcePoint" />
            <mxPoint x="670" y="510" as="targetPoint" />
            <Array as="points">
              <mxPoint x="681" y="400" />
              <mxPoint x="600" y="400" />
              <mxPoint x="600" y="280" />
            </Array>
          </mxGeometry>
        </mxCell>
        <mxCell id="Ji2YyT9t74MeuZ0UEmZ--86" value="" style="group;fontSize=10;rounded=1;" vertex="1" connectable="0" parent="1">
          <mxGeometry x="400" y="880" width="160" height="102" as="geometry" />
        </mxCell>
        <mxCell id="Ji2YyT9t74MeuZ0UEmZ--87" value="&lt;font style=&quot;font-size: 14px;&quot;&gt;Application&lt;br&gt;&lt;br&gt;&lt;br&gt;&lt;/font&gt;" style="rounded=1;whiteSpace=wrap;html=1;shadow=0;strokeColor=#666666;fontSize=7;fillColor=#dae8fc;arcSize=4;" vertex="1" parent="Ji2YyT9t74MeuZ0UEmZ--86">
          <mxGeometry width="160" height="80" as="geometry" />
        </mxCell>
        <mxCell id="Ji2YyT9t74MeuZ0UEmZ--102" value="&lt;font style=&quot;font-size: 10px;&quot;&gt;AppGateway&lt;/font&gt;" style="rounded=1;whiteSpace=wrap;html=1;fontSize=14;fillColor=#f5f5f5;strokeColor=#666666;fontColor=#333333;" vertex="1" parent="Ji2YyT9t74MeuZ0UEmZ--86">
          <mxGeometry y="62" width="160" height="18" as="geometry" />
        </mxCell>
        <mxCell id="Ji2YyT9t74MeuZ0UEmZ--103" value="" style="rounded=1;whiteSpace=wrap;html=1;shadow=0;strokeColor=#666666;fontSize=10;fillColor=#EAFFE9;arcSize=20;" vertex="1" parent="Ji2YyT9t74MeuZ0UEmZ--86">
          <mxGeometry x="150" y="62" width="10" height="18" as="geometry" />
        </mxCell>
        <mxCell id="Ji2YyT9t74MeuZ0UEmZ--85" value="" style="group;fontSize=10;rounded=1;strokeColor=#666666;" connectable="0" vertex="1" parent="1">
          <mxGeometry x="120" y="911" width="160" height="90" as="geometry" />
        </mxCell>
        <mxCell id="Ji2YyT9t74MeuZ0UEmZ--83" value="&lt;font style=&quot;font-size: 14px;&quot;&gt;Application&lt;br&gt;&lt;br&gt;&lt;br&gt;&lt;/font&gt;" style="rounded=1;whiteSpace=wrap;html=1;shadow=0;strokeColor=#666666;fontSize=7;fillColor=#dae8fc;arcSize=4;" vertex="1" parent="Ji2YyT9t74MeuZ0UEmZ--85">
          <mxGeometry width="160" height="90" as="geometry" />
        </mxCell>
        <mxCell id="Ji2YyT9t74MeuZ0UEmZ--84" value="&lt;font style=&quot;font-size: 10px;&quot;&gt;AppGateway&lt;/font&gt;" style="rounded=1;whiteSpace=wrap;html=1;fontSize=14;fillColor=#f5f5f5;strokeColor=#666666;fontColor=#333333;" vertex="1" parent="Ji2YyT9t74MeuZ0UEmZ--85">
          <mxGeometry y="72" width="160" height="18" as="geometry" />
        </mxCell>
        <mxCell id="Ji2YyT9t74MeuZ0UEmZ--89" value="" style="endArrow=classic;html=1;rounded=1;comic=0;strokeColor=#666666;strokeWidth=1;fontSize=10;entryX=0.5;entryY=0;entryDx=0;entryDy=0;" edge="1" parent="1" target="Ji2YyT9t74MeuZ0UEmZ--83">
          <mxGeometry width="50" height="50" relative="1" as="geometry">
            <mxPoint x="340" y="800" as="sourcePoint" />
            <mxPoint x="420" y="520" as="targetPoint" />
            <Array as="points">
              <mxPoint x="340" y="860" />
              <mxPoint x="200" y="860" />
            </Array>
          </mxGeometry>
        </mxCell>
        <mxCell id="Ji2YyT9t74MeuZ0UEmZ--94" value="" style="endArrow=classic;html=1;rounded=1;comic=0;strokeColor=#009900;strokeWidth=1;fontSize=10;dashed=1;entryX=1.006;entryY=0.9;entryDx=0;entryDy=0;entryPerimeter=0;opacity=50;" edge="1" parent="1" target="Ji2YyT9t74MeuZ0UEmZ--83">
          <mxGeometry width="50" height="50" relative="1" as="geometry">
            <mxPoint x="610" y="940" as="sourcePoint" />
            <mxPoint x="280" y="1070" as="targetPoint" />
            <Array as="points">
              <mxPoint x="610" y="992" />
              <mxPoint x="320" y="992" />
            </Array>
          </mxGeometry>
        </mxCell>
        <mxCell id="Ji2YyT9t74MeuZ0UEmZ--93" value="" style="endArrow=classic;html=1;rounded=1;comic=0;fontSize=7;strokeColor=#009900;dashed=1;entryX=1.013;entryY=0.888;entryDx=0;entryDy=0;entryPerimeter=0;strokeWidth=1;opacity=50;" edge="1" parent="1" target="Ji2YyT9t74MeuZ0UEmZ--87">
          <mxGeometry width="50" height="50" relative="1" as="geometry">
            <mxPoint x="610" y="785" as="sourcePoint" />
            <mxPoint x="570" y="760" as="targetPoint" />
            <Array as="points">
              <mxPoint x="610" y="951" />
            </Array>
          </mxGeometry>
        </mxCell>
        <mxCell id="GzdK0nWGL-ioOvC9NuG4-2" value="Comms" style="rounded=1;whiteSpace=wrap;html=1;fontSize=14;fillColor=#EAFFE9;strokeColor=#666666;" vertex="1" parent="1">
          <mxGeometry x="350" y="250" width="210" height="40" as="geometry" />
        </mxCell>
        <mxCell id="GzdK0nWGL-ioOvC9NuG4-3" value="Cache" style="rounded=1;whiteSpace=wrap;html=1;fontSize=14;fillColor=#B9C9B9;strokeColor=#666666;opacity=60;" vertex="1" parent="1">
          <mxGeometry x="380" y="280" width="66" height="40" as="geometry" />
        </mxCell>
        <mxCell id="Ji2YyT9t74MeuZ0UEmZ--43" value="&amp;nbsp; &amp;nbsp; &amp;nbsp; &amp;nbsp; &amp;nbsp; &amp;nbsp; &amp;nbsp; &amp;nbsp; &amp;nbsp; &amp;nbsp; &amp;nbsp; &amp;nbsp; &amp;nbsp; &amp;nbsp; &amp;nbsp; &amp;nbsp; &amp;nbsp; &amp;nbsp; Access Control" style="rounded=1;whiteSpace=wrap;html=1;fontSize=14;fillColor=#F8E4E4;strokeColor=#666666;align=center;opacity=60;" vertex="1" parent="1">
          <mxGeometry x="128" y="390" width="424.72" height="40" as="geometry" />
        </mxCell>
        <mxCell id="Ji2YyT9t74MeuZ0UEmZ--45" value="&amp;nbsp; &amp;nbsp; &amp;nbsp; &amp;nbsp; &amp;nbsp; &amp;nbsp; &amp;nbsp; &amp;nbsp; &amp;nbsp; &amp;nbsp; &amp;nbsp; &amp;nbsp; &amp;nbsp; &amp;nbsp; &amp;nbsp; &amp;nbsp; &amp;nbsp; &amp;nbsp;Load Balancer" style="rounded=1;whiteSpace=wrap;html=1;fontSize=14;fillColor=#F8F1F1;strokeColor=#666666;opacity=60;" vertex="1" parent="1">
          <mxGeometry x="128" y="430" width="424.72" height="40" as="geometry" />
        </mxCell>
        <mxCell id="MSE-PEUDxWuA4eRkOTG2-4" style="edgeStyle=orthogonalEdgeStyle;rounded=0;orthogonalLoop=1;jettySize=auto;html=1;exitX=1;exitY=0.5;exitDx=0;exitDy=0;entryX=0;entryY=0.5;entryDx=0;entryDy=0;entryPerimeter=0;strokeColor=#009900;dashed=1;startArrow=classic;startFill=1;opacity=50;" edge="1" parent="1" source="GzdK0nWGL-ioOvC9NuG4-9" target="MSE-PEUDxWuA4eRkOTG2-11">
          <mxGeometry relative="1" as="geometry">
            <mxPoint x="720" y="785" as="targetPoint" />
          </mxGeometry>
        </mxCell>
        <mxCell id="GzdK0nWGL-ioOvC9NuG4-9" value="" style="rounded=1;whiteSpace=wrap;html=1;shadow=0;strokeColor=#666666;fontSize=10;fillColor=#EAFFE9;arcSize=20;" vertex="1" parent="1">
          <mxGeometry x="545" y="770" width="15" height="30" as="geometry" />
        </mxCell>
        <mxCell id="GzdK0nWGL-ioOvC9NuG4-13" value="" style="endArrow=classic;html=1;rounded=1;comic=0;strokeColor=#666666;strokeWidth=1;fontSize=10;entryX=0.5;entryY=0;entryDx=0;entryDy=0;exitX=0.5;exitY=1;exitDx=0;exitDy=0;" edge="1" parent="1" source="GzdK0nWGL-ioOvC9NuG4-10" target="Ji2YyT9t74MeuZ0UEmZ--87">
          <mxGeometry width="50" height="50" relative="1" as="geometry">
            <mxPoint x="350" y="810" as="sourcePoint" />
            <mxPoint x="210" y="930" as="targetPoint" />
            <Array as="points">
              <mxPoint x="340" y="860" />
              <mxPoint x="480" y="860" />
            </Array>
          </mxGeometry>
        </mxCell>
        <mxCell id="GzdK0nWGL-ioOvC9NuG4-14" value="" style="endArrow=classic;html=1;rounded=1;comic=0;fontSize=7;exitX=1;exitY=0.25;exitDx=0;exitDy=0;entryX=0;entryY=0;entryDx=0;entryDy=0;strokeColor=#009900;dashed=1;strokeWidth=2;" edge="1" parent="1" source="GzdK0nWGL-ioOvC9NuG4-2">
          <mxGeometry width="50" height="50" relative="1" as="geometry">
            <mxPoint x="691" y="376" as="sourcePoint" />
            <mxPoint x="658.7867965644036" y="212.92893218813447" as="targetPoint" />
            <Array as="points">
              <mxPoint x="620" y="260" />
              <mxPoint x="620" y="220" />
              <mxPoint x="620" y="190" />
              <mxPoint x="640" y="190" />
              <mxPoint x="650" y="190" />
            </Array>
          </mxGeometry>
        </mxCell>
        <mxCell id="GzdK0nWGL-ioOvC9NuG4-18" value="" style="endArrow=classic;html=1;rounded=1;comic=0;fontSize=7;entryX=1;entryY=0;entryDx=0;entryDy=0;strokeColor=#009900;dashed=1;strokeWidth=2;" edge="1" parent="1">
          <mxGeometry width="50" height="50" relative="1" as="geometry">
            <mxPoint x="561" y="90" as="sourcePoint" />
            <mxPoint x="701.2132034355964" y="212.92893218813458" as="targetPoint" />
            <Array as="points">
              <mxPoint x="710" y="90" />
              <mxPoint x="710" y="200" />
            </Array>
          </mxGeometry>
        </mxCell>
        <mxCell id="GzdK0nWGL-ioOvC9NuG4-19" value="" style="endArrow=classic;html=1;rounded=1;comic=0;fontSize=7;exitX=1;exitY=0.75;exitDx=0;exitDy=0;entryX=1;entryY=0.5;entryDx=0;entryDy=0;strokeColor=#6C8EBF;dashed=1;strokeWidth=2;" edge="1" parent="1" target="MSE-PEUDxWuA4eRkOTG2-3">
          <mxGeometry width="50" height="50" relative="1" as="geometry">
            <mxPoint x="560.6400000000001" y="110" as="sourcePoint" />
            <mxPoint x="712" y="220" as="targetPoint" />
            <Array as="points">
              <mxPoint x="590" y="110" />
              <mxPoint x="590" y="170" />
              <mxPoint x="590" y="230" />
            </Array>
          </mxGeometry>
        </mxCell>
        <mxCell id="MSE-PEUDxWuA4eRkOTG2-3" value="Https" style="rounded=1;whiteSpace=wrap;html=1;fontSize=14;fillColor=#D0DDF0;strokeColor=#666666;glass=0;" vertex="1" parent="1">
          <mxGeometry x="350" y="210" width="210" height="40" as="geometry" />
        </mxCell>
        <mxCell id="MSE-PEUDxWuA4eRkOTG2-5" value="&lt;font style=&quot;font-size: 16px;&quot;&gt;AppGateway Manager&lt;/font&gt;" style="rounded=1;whiteSpace=wrap;html=1;fillColor=#BECADB;shadow=0;glass=0;strokeColor=#666666;" vertex="1" parent="1">
          <mxGeometry x="340" y="80" width="220" height="40" as="geometry" />
        </mxCell>
        <mxCell id="MSE-PEUDxWuA4eRkOTG2-12" value="MQ" style="shape=cylinder3;whiteSpace=wrap;html=1;boundedLbl=1;backgroundOutline=1;size=15;gradientColor=#213324;fillColor=#FFFFFF;strokeColor=#666666;" vertex="1" parent="1">
          <mxGeometry x="650" y="213" width="60" height="140" as="geometry" />
        </mxCell>
        <mxCell id="MSE-PEUDxWuA4eRkOTG2-13" value="Certificate Management" style="rounded=1;whiteSpace=wrap;html=1;fontSize=14;fillColor=#f8cecc;strokeColor=#666666;" vertex="1" parent="1">
          <mxGeometry x="350" y="350" width="193" height="40" as="geometry" />
        </mxCell>
        <mxCell id="MSE-PEUDxWuA4eRkOTG2-14" value="Security" style="rounded=1;whiteSpace=wrap;html=1;fontSize=14;fillColor=#f8cecc;strokeColor=#666666;" vertex="1" parent="1">
          <mxGeometry x="138" y="350" width="193" height="40" as="geometry" />
        </mxCell>
        <mxCell id="MSE-PEUDxWuA4eRkOTG2-15" value="" style="endArrow=classic;html=1;rounded=1;comic=0;fontSize=7;strokeColor=#666666;dashed=1;entryX=1.013;entryY=0.888;entryDx=0;entryDy=0;entryPerimeter=0;strokeWidth=1;opacity=50;" edge="1" parent="1" target="MSE-PEUDxWuA4eRkOTG2-11">
          <mxGeometry width="50" height="50" relative="1" as="geometry">
            <mxPoint x="680" y="790" as="sourcePoint" />
            <mxPoint x="562" y="951" as="targetPoint" />
            <Array as="points" />
          </mxGeometry>
        </mxCell>
        <mxCell id="MSE-PEUDxWuA4eRkOTG2-11" value="MQ" style="shape=cylinder3;whiteSpace=wrap;html=1;boundedLbl=1;backgroundOutline=1;size=15;gradientColor=#213324;fillColor=#FFFFFF;strokeColor=#666666;" vertex="1" parent="1">
          <mxGeometry x="650" y="715" width="60" height="140" as="geometry" />
        </mxCell>
        <mxCell id="MSE-PEUDxWuA4eRkOTG2-16" value="&amp;nbsp; &amp;nbsp; &amp;nbsp; &amp;nbsp; &amp;nbsp; &amp;nbsp; &amp;nbsp; &amp;nbsp; &amp;nbsp; &amp;nbsp; &amp;nbsp; &amp;nbsp; &amp;nbsp; &amp;nbsp; &amp;nbsp; &amp;nbsp; &amp;nbsp; &amp;nbsp;Load Balancer" style="rounded=1;whiteSpace=wrap;html=1;fontSize=14;fillColor=#F8F1F1;strokeColor=#666666;opacity=60;" vertex="1" parent="1">
          <mxGeometry x="128" y="430" width="424.72" height="40" as="geometry" />
        </mxCell>
        <mxCell id="MSE-PEUDxWuA4eRkOTG2-17" value="&amp;nbsp; &amp;nbsp; &amp;nbsp; &amp;nbsp; &amp;nbsp; &amp;nbsp; &amp;nbsp; &amp;nbsp; &amp;nbsp; &amp;nbsp; &amp;nbsp; &amp;nbsp; &amp;nbsp; &amp;nbsp; &amp;nbsp; &amp;nbsp; &amp;nbsp; &amp;nbsp; Access Control" style="rounded=1;whiteSpace=wrap;html=1;fontSize=14;fillColor=#F8E4E4;strokeColor=#666666;align=center;opacity=60;" vertex="1" parent="1">
          <mxGeometry x="128" y="390" width="424.72" height="40" as="geometry" />
        </mxCell>
        <mxCell id="MSE-PEUDxWuA4eRkOTG2-18" value="&amp;nbsp; &amp;nbsp; &amp;nbsp; &amp;nbsp; &amp;nbsp; &amp;nbsp; &amp;nbsp; &amp;nbsp; &amp;nbsp; &amp;nbsp; &amp;nbsp; &amp;nbsp; &amp;nbsp; &amp;nbsp; &amp;nbsp; &amp;nbsp; &amp;nbsp; &amp;nbsp;Load Balancer" style="rounded=1;whiteSpace=wrap;html=1;fontSize=14;fillColor=#F8F1F1;strokeColor=#666666;opacity=60;" vertex="1" parent="1">
          <mxGeometry x="128" y="430" width="424.72" height="40" as="geometry" />
        </mxCell>
        <mxCell id="MSE-PEUDxWuA4eRkOTG2-19" value="&amp;nbsp; &amp;nbsp; &amp;nbsp; &amp;nbsp; &amp;nbsp; &amp;nbsp; &amp;nbsp; &amp;nbsp; &amp;nbsp; &amp;nbsp; &amp;nbsp; &amp;nbsp; &amp;nbsp; &amp;nbsp; &amp;nbsp; &amp;nbsp; &amp;nbsp; &amp;nbsp; Access Control" style="rounded=1;whiteSpace=wrap;html=1;fontSize=14;fillColor=#F8E4E4;strokeColor=#666666;align=center;opacity=60;" vertex="1" parent="1">
          <mxGeometry x="128" y="390" width="424.72" height="40" as="geometry" />
        </mxCell>
        <mxCell id="MSE-PEUDxWuA4eRkOTG2-20" value="Health" style="rounded=1;whiteSpace=wrap;html=1;fontSize=14;fillColor=#f5f5f5;strokeColor=#666666;fontColor=#333333;" vertex="1" parent="1">
          <mxGeometry x="138" y="310" width="193" height="40" as="geometry" />
        </mxCell>
        <mxCell id="MSE-PEUDxWuA4eRkOTG2-21" value="Service Registry" style="rounded=1;whiteSpace=wrap;html=1;fontSize=14;fillColor=#E6DAB8;strokeColor=#666666;" vertex="1" parent="1">
          <mxGeometry x="138" y="270" width="193" height="40" as="geometry" />
        </mxCell>
        <mxCell id="MSE-PEUDxWuA4eRkOTG2-22" value="Configuration Manager" style="rounded=1;whiteSpace=wrap;html=1;fontSize=14;fillColor=#E6DAB8;strokeColor=#666666;glass=0;" vertex="1" parent="1">
          <mxGeometry x="138" y="220" width="193" height="40" as="geometry" />
        </mxCell>
        <mxCell id="MSE-PEUDxWuA4eRkOTG2-23" value="Https" style="rounded=1;whiteSpace=wrap;html=1;fontSize=14;fillColor=#D0DDF0;strokeColor=#666666;glass=0;" vertex="1" parent="1">
          <mxGeometry x="350" y="210" width="210" height="40" as="geometry" />
        </mxCell>
        <mxCell id="GzdK0nWGL-ioOvC9NuG4-4" value="channels" style="rounded=1;whiteSpace=wrap;html=1;fillColor=#D9EDD8;fontSize=15;horizontal=0;opacity=60;strokeColor=#666666;" vertex="1" parent="1">
          <mxGeometry x="323.5" y="200" width="33" height="253" as="geometry" />
        </mxCell>
        <mxCell id="MSE-PEUDxWuA4eRkOTG2-24" value="" style="image;aspect=fixed;perimeter=ellipsePerimeter;html=1;align=center;shadow=0;dashed=0;fontColor=#4277BB;labelBackgroundColor=default;fontSize=12;spacingTop=3;image=img/lib/ibm/users/browser.svg;imageBackground=none;" vertex="1" parent="1">
          <mxGeometry x="150" y="70" width="60" height="60" as="geometry" />
        </mxCell>
        <mxCell id="MSE-PEUDxWuA4eRkOTG2-25" value="" style="endArrow=classic;html=1;rounded=0;exitX=1;exitY=0.5;exitDx=0;exitDy=0;entryX=0;entryY=0.5;entryDx=0;entryDy=0;" edge="1" parent="1" source="MSE-PEUDxWuA4eRkOTG2-24" target="MSE-PEUDxWuA4eRkOTG2-5">
          <mxGeometry width="50" height="50" relative="1" as="geometry">
            <mxPoint x="240" y="110" as="sourcePoint" />
            <mxPoint x="290" y="60" as="targetPoint" />
          </mxGeometry>
        </mxCell>
        <mxCell id="Ji2YyT9t74MeuZ0UEmZ--104" value="" style="rounded=1;whiteSpace=wrap;html=1;shadow=0;strokeColor=#666666;fontSize=10;fillColor=#EAFFE9;arcSize=20;" vertex="1" parent="1">
          <mxGeometry x="270" y="983" width="10" height="18" as="geometry" />
        </mxCell>
      </root>
    </mxGraphModel>
  </diagram>
</mxfile>
